{"title":"The Bourne Legacy 2012 NEW SOURCE CAM x264 AAC-UNiQUE","uid":7574309,"size":2414634430,"categoryP":"video","categoryS":"movies","magnet":"?xt=urn:btih:66d47cceb8fe823df2f1bfdd318c26f0aed1be03&amp;dn=The+Bourne+Legacy+2012+NEW+SOURCE+CAM+x264+AAC-UNiQUE&amp;tr=udp%3A%2F%2Ftracker.openbittorrent.com%3A80&amp;tr=udp%3A%2F%2Fopen.demonii.com%3A1337&amp;tr=udp%3A%2F%2Ftracker.coppersurfer.tk%3A6969&amp;tr=udp%3A%2F%2Fexodus.desync.com%3A6969","seeders":0,"leechers":0,"uploader":"hiest","files":-1,"time":1346074107,"description":"##     ## ##    ## ####  #######  ##     ## ######## \n##     ## ###   ##  ##  ##     ## ##     ## ##       \n##     ## ####  ##  ##  ##     ## ##     ## ##       \n##     ## ## ## ##  ##  ##     ## ##     ## ######   \n##     ## ##  ####  ##  ##  ## ## ##     ## ##       \n##     ## ##   ###  ##  ##    ##  ##     ## ##       \n #######  ##    ## ####  ##### ##  #######  ######## \n\n\n#############Credits To DiNGiE &amp; Unique#############\n\n\nGeneral\nComplete name : The Bourne Legacy 2012 NEW SOURCE CAM x264 AAC-UNiQUE.mp4\nFormat : MPEG-4\nFormat profile : Base Media\nCodec ID : isom\nFile size : 2.20 GiB\nDuration : 2h 7mn\nOverall bit rate mode : Variable\nverall bit rate : 2 464 Kbps\nEncoded date : UTC 2012-08-27 09:01:16\n\nVideo\nID : 1\nFormat : AVC\nFormat/Info : Advanced Video Codec\nFormat profile : &lt;a class=&quot;__cf_email__&quot; href=&quot;/cdn-cgi/l/email-protection&quot; data-cfemail=&quot;551d3c323d1519617b64&quot;&gt;[email&amp;#160;protected]&lt;/a&gt;&lt;script data-cfhash='f9e31' type=&quot;text/javascript&quot;&gt;\n/* &lt;![CDATA[ */!function(){try{var t=&quot;currentScript&quot;in document?document.currentScript:function(){for(var t=document.getElementsByTagName(&quot;script&quot;),e=t.length;e--;)if(t[e].getAttribute(&quot;data-cfhash&quot;))return t[e]}();if(t&amp;&amp;t.previousSibling){var e,r,n,i,c=t.previousSibling,a=c.getAttribute(&quot;data-cfemail&quot;);if(a){for(e=&quot;&quot;,r=parseInt(a.substr(0,2),16),n=2;a.length-n;n+=2)i=parseInt(a.substr(n,2),16)^r,e+=String.fromCharCode(i);e=document.createTextNode(e),c.parentNode.replaceChild(e,c)}t.parentNode.removeChild(t);}}catch(u){}}()/* ]]&gt; */&lt;/script&gt;\nFormat settings, CABAC : Yes\nFormat settings, ReFrames : 3 frames\nCodec ID : avc1\nCodec ID/Info : Advanced Video Coding\nDuration : 2h 7mn\nBit rate mode : Variable\nBit rate : 2 338 Kbps\nMaximum bit rate : 40.0 Mbps\nWidth : 720 pixels\nHeight : 338 pixels\nDisplay aspect ratio : 2.130\nFrame rate mode : Constant\nFrame rate : 29.970 fps\nColor space : YUV\nChroma subsampling : 4:2:0\nBit depth : 8 bits\nScan type : Progressive\nBits/(Pixel*Frame) : 0.321\nStream size : 2.09 GiB (95%)\nWriting library : x264 core 125 r2208 d9d2288\n\nAudio\nID : 2\nFormat : AAC\nFormat/Info : Advanced Audio Codec\nFormat profile : LC\nCodec ID : 40\nDuration : 2h 7mn\nBit rate mode : Variable\nBit rate : 122 Kbps\nMaximum bit rate : 144 Kbps\nChannel(s) : 2 channels\nChannel positions : Front: L R\nSampling rate : 44.1 KHz\nCompression mode : Lossy\nStream size : 111 MiB (5%)\nLanguage : English\nEncoded date : UTC 2012-08-27 09:02:10\n\nSource : NEW SOURCE 26K - Thanks! \n\nStoryline\nAaron Cross, a new hero, experiences life-or-death stakes that have been triggered by previous events.\n\niMDB: &lt;a href=&quot;\nhttp://www.imdb.com/title/tt1194173&quot; rel=&quot;nofollow&quot; target=&quot;_NEW&quot;&gt;\nhttp://www.imdb.com/title/tt1194173&lt;/a&gt;\n\nScreen Shots:\nLook at the comment\n\n\n#############Credits To DiNGiE &amp; Unique#############\n\n\n##     ## ##    ## ####  #######  ##     ## ######## \n##     ## ###   ##  ##  ##     ## ##     ## ##       \n##     ## ####  ##  ##  ##     ## ##     ## ##       \n##     ## ## ## ##  ##  ##     ## ##     ## ######   \n##     ## ##  ####  ##  ##  ## ## ##     ## ##       \n##     ## ##   ###  ##  ##    ##  ##     ## ##       \n #######  ##    ## ####  ##### ##  #######  ######## ","torrent":{"xt":"urn:btih:66d47cceb8fe823df2f1bfdd318c26f0aed1be03","amp;dn":"The+Bourne+Legacy+2012+NEW+SOURCE+CAM+x264+AAC-UNiQUE","amp;tr":["udp%3A%2F%2Ftracker.openbittorrent.com%3A80","udp%3A%2F%2Fopen.demonii.com%3A1337","udp%3A%2F%2Ftracker.coppersurfer.tk%3A6969","udp%3A%2F%2Fexodus.desync.com%3A6969"],"infoHash":"66d47cceb8fe823df2f1bfdd318c26f0aed1be03","infoHashBuffer":{"type":"Buffer","data":[102,212,124,206,184,254,130,61,242,241,191,221,49,140,38,240,174,209,190,3]},"announce":[],"urlList":[]}}